<?xml version="1.0" encoding="utf-8"?>
<!-- Generator: Adobe Illustrator 16.0.0, SVG Export Plug-In . SVG Version: 6.00 Build 0)  -->
<!DOCTYPE svg PUBLIC "-//W3C//DTD SVG 1.1//EN" "http://www.w3.org/Graphics/SVG/1.1/DTD/svg11.dtd">
<svg version="1.1" id="Layer_1" xmlns="http://www.w3.org/2000/svg" xmlns:xlink="http://www.w3.org/1999/xlink" x="0px" y="0px"
	 width="420.339px" height="52.542px" viewBox="0 0 420.339 52.542" enable-background="new 0 0 420.339 52.542"
	 xml:space="preserve">
<g>
	<path fill="#ADE0F9" d="M18.492,21.652c0.205-0.205,0.466-0.461,0.785-0.769c0.319-0.307,0.706-0.608,1.161-0.904
		c0.455-0.296,0.984-0.547,1.588-0.752c0.603-0.204,1.292-0.307,2.066-0.307c0.819,0,1.485,0.114,1.998,0.341
		c0.512,0.229,0.922,0.513,1.229,0.854c0.307,0.341,0.529,0.699,0.666,1.075c0.137,0.376,0.239,0.723,0.308,1.042
		c0.273-0.342,0.592-0.706,0.956-1.093c0.364-0.388,0.786-0.746,1.264-1.076s1.024-0.603,1.639-0.819
		c0.615-0.216,1.32-0.324,2.117-0.324c0.751,0,1.4,0.108,1.946,0.324c0.546,0.217,1.008,0.495,1.383,0.837
		c0.375,0.341,0.654,0.729,0.836,1.16c0.182,0.434,0.273,0.866,0.273,1.298c0,0.364-0.051,0.819-0.154,1.366
		c-0.103,0.546-0.222,1.149-0.358,1.81l-1.298,6.215c-0.205,0.979-0.336,1.713-0.393,2.202c-0.057,0.49-0.108,0.837-0.154,1.042
		c-0.182-0.023-0.387-0.034-0.615-0.034s-0.467,0-0.717,0c-0.251,0-0.501,0-0.751,0s-0.49,0.011-0.717,0.034
		c0.09-0.205,0.222-0.608,0.393-1.212s0.353-1.292,0.546-2.066c0.193-0.773,0.393-1.588,0.598-2.441
		c0.205-0.854,0.393-1.667,0.563-2.441c0.17-0.773,0.307-1.474,0.41-2.101c0.103-0.625,0.153-1.086,0.153-1.383
		c0-0.956-0.29-1.695-0.871-2.22c-0.581-0.523-1.326-0.785-2.236-0.785c-0.433,0-0.894,0.074-1.383,0.222
		c-0.49,0.148-0.956,0.376-1.4,0.684s-0.854,0.706-1.229,1.195c-0.375,0.489-0.666,1.087-0.871,1.792
		c-0.137,0.456-0.307,1.156-0.512,2.101s-0.416,1.958-0.632,3.039s-0.421,2.14-0.615,3.176s-0.336,1.85-0.427,2.441
		c-0.182-0.023-0.393-0.034-0.632-0.034c-0.239,0-0.461,0-0.666,0c-0.251,0-0.501,0-0.751,0s-0.49,0.011-0.717,0.034
		c0.113-0.342,0.261-0.831,0.444-1.469c0.182-0.637,0.364-1.343,0.546-2.117c0.182-0.773,0.37-1.581,0.563-2.424
		c0.193-0.842,0.37-1.645,0.529-2.407c0.159-0.763,0.284-1.451,0.375-2.066c0.091-0.614,0.137-1.093,0.137-1.434
		c0-0.523-0.097-0.957-0.291-1.298c-0.193-0.342-0.433-0.62-0.717-0.837c-0.285-0.216-0.609-0.37-0.974-0.461
		s-0.717-0.137-1.058-0.137c-0.183,0-0.484,0.034-0.905,0.103c-0.421,0.068-0.876,0.233-1.366,0.495
		c-0.49,0.262-0.973,0.654-1.451,1.178c-0.478,0.524-0.866,1.253-1.161,2.186c-0.137,0.433-0.313,1.139-0.529,2.117
		c-0.217,0.979-0.427,2.026-0.632,3.142c-0.205,1.116-0.398,2.186-0.581,3.21s-0.307,1.765-0.375,2.22
		c-0.183-0.023-0.393-0.034-0.632-0.034c-0.239,0-0.484,0-0.734,0c-0.251,0-0.495,0-0.734,0c-0.239,0-0.45,0.011-0.632,0.034
		c0.182-0.592,0.381-1.326,0.598-2.202c0.216-0.877,0.438-1.805,0.666-2.783c0.227-0.979,0.455-1.992,0.683-3.039
		c0.227-1.047,0.438-2.061,0.631-3.039s0.364-1.9,0.512-2.767c0.148-0.864,0.256-1.616,0.325-2.253
		c0.137,0.046,0.318,0.08,0.546,0.102c0.227,0.023,0.444,0.034,0.648,0.034c0.546,0,1.013-0.045,1.4-0.136l-0.683,2.561H18.492z"/>
	<path fill="#ADE0F9" d="M47.602,29.625c0.489-0.831,0.961-1.668,1.417-2.51c0.706-1.298,1.281-2.351,1.725-3.159
		c0.444-0.808,0.802-1.468,1.076-1.98c0.273-0.512,0.478-0.916,0.615-1.212c0.136-0.296,0.261-0.58,0.375-0.854l0.341-0.819
		c0.342,0.091,0.74,0.136,1.195,0.136c0.455,0,0.819-0.045,1.093-0.136c-1.252,1.98-2.527,4.018-3.825,6.112
		c-1.297,2.095-2.573,4.212-3.824,6.351c-1.252,2.141-2.465,4.257-3.637,6.352c-1.173,2.095-2.249,4.144-3.227,6.146
		c-0.251-0.091-0.615-0.137-1.093-0.137c-0.456,0-0.808,0.046-1.059,0.137c0.956-1.502,1.912-3.017,2.869-4.541
		c0.956-1.525,1.866-2.982,2.731-4.371c-0.683-2.8-1.36-5.492-2.032-8.076c-0.671-2.583-1.372-5.241-2.1-7.973
		c0.205,0.046,0.432,0.08,0.683,0.102c0.25,0.023,0.5,0.034,0.751,0.034c0.546,0,0.99-0.045,1.332-0.136
		c0.273,1.57,0.66,3.46,1.161,5.668c0.5,2.208,1.115,4.656,1.844,7.342h0.171C46.64,31.282,47.112,30.457,47.602,29.625z"/>
	<path fill="#FFFFFF" d="M57.477,13.892c-0.064-1.627-0.133-3.255-0.21-4.883c0.661,0.051,1.335,0.095,2.022,0.133
		S60.649,9.2,61.311,9.2c0.661,0,1.335-0.032,2.021-0.096c0.687-0.063,1.36-0.095,2.022-0.095c1.093,0,2.123,0.083,3.09,0.248
		c0.966,0.166,1.818,0.458,2.556,0.877c0.737,0.419,1.322,0.986,1.754,1.697c0.432,0.712,0.648,1.602,0.648,2.67
		c0,1.883-0.591,3.357-1.773,4.425c-1.183,1.068-2.728,1.818-4.635,2.251v0.076c2.263,0.103,4.05,0.648,5.36,1.641
		c1.31,0.991,1.964,2.581,1.964,4.769c0,1.424-0.292,2.619-0.877,3.586c-0.585,0.967-1.349,1.748-2.289,2.346
		c-0.941,0.598-1.978,1.018-3.109,1.259c-1.132,0.242-2.257,0.362-3.376,0.362c-0.61,0-1.228-0.013-1.85-0.038
		c-0.624-0.025-1.24-0.038-1.851-0.038c-0.61,0-1.227,0-1.85,0s-1.24,0.025-1.85,0.076c0.077-1.627,0.146-3.248,0.21-4.863
		c0.063-1.615,0.095-3.262,0.095-4.94v-6.562C57.572,17.172,57.54,15.52,57.477,13.892z M65.412,20.454
		c0.877-0.178,1.66-0.477,2.346-0.896s1.24-0.979,1.659-1.679c0.42-0.699,0.629-1.583,0.629-2.651c0-1.042-0.19-1.875-0.572-2.499
		c-0.382-0.623-0.865-1.106-1.45-1.45c-0.585-0.343-1.247-0.572-1.984-0.687c-0.738-0.114-1.475-0.171-2.212-0.171
		c-0.662,0-1.221,0.019-1.679,0.057c-0.458,0.038-0.865,0.083-1.221,0.133c-0.051,1.221-0.102,2.429-0.152,3.624
		c-0.051,1.196-0.076,2.404-0.076,3.625v2.86h2.06C63.65,20.72,64.534,20.631,65.412,20.454z M60.777,29.875
		c0.051,1.272,0.101,2.557,0.152,3.854c0.483,0.051,1.055,0.095,1.717,0.133c0.661,0.038,1.335,0.058,2.022,0.058
		c0.813,0,1.596-0.14,2.346-0.42c0.75-0.279,1.405-0.692,1.965-1.239c0.559-0.547,1.004-1.221,1.335-2.022
		c0.331-0.801,0.496-1.71,0.496-2.728c0-1.093-0.197-1.989-0.591-2.688c-0.395-0.699-0.96-1.246-1.698-1.641
		c-0.738-0.395-1.621-0.668-2.651-0.82c-1.03-0.152-2.181-0.229-3.453-0.229h-1.716v3.891C60.701,27.32,60.726,28.604,60.777,29.875
		z"/>
	<path fill="#FFFFFF" d="M84.6,22.609c-0.496-0.826-1.043-1.742-1.641-2.747c-0.598-1.004-1.227-2.06-1.888-3.166
		c-0.662-1.106-1.291-2.161-1.888-3.166c-0.598-1.004-1.139-1.907-1.622-2.708c-0.483-0.801-0.852-1.405-1.106-1.812
		c0.356,0.051,0.706,0.095,1.049,0.133S78.197,9.2,78.553,9.2c0.355,0,0.706-0.02,1.049-0.058s0.693-0.082,1.049-0.133
		c1.144,2.212,2.308,4.387,3.49,6.523c1.183,2.136,2.435,4.361,3.757,6.676c0.585-0.916,1.195-1.92,1.831-3.014
		s1.271-2.213,1.908-3.357c0.635-1.144,1.246-2.294,1.831-3.452c0.584-1.157,1.131-2.282,1.64-3.376
		C95.744,9.137,96.24,9.2,96.597,9.2c0.356,0,0.852-0.063,1.488-0.191c-1.221,1.856-2.314,3.535-3.281,5.036
		c-0.967,1.5-1.818,2.861-2.556,4.082c-0.738,1.221-1.387,2.321-1.946,3.3c-0.56,0.979-1.043,1.863-1.449,2.651
		c0,0.941,0.006,1.945,0.019,3.014c0.012,1.068,0.031,2.117,0.057,3.146c0.025,1.03,0.057,1.984,0.095,2.861
		c0.038,0.878,0.083,1.583,0.134,2.117c-0.585-0.051-1.208-0.076-1.87-0.076c-0.662,0-1.284,0.025-1.869,0.076
		c0.153-1.322,0.242-2.924,0.267-4.807c0.025-1.882,0.038-3.853,0.038-5.913C85.47,24.065,85.095,23.435,84.6,22.609z"/>
	<path fill="#FFFFFF" d="M121.735,13.053c-0.026-1.958-0.089-3.306-0.191-4.043c0.28,0.051,0.546,0.095,0.801,0.133
		c0.254,0.038,0.508,0.058,0.763,0.058c0.33,0,0.712-0.063,1.145-0.191c-0.076,0.891-0.153,1.952-0.229,3.185
		c-0.076,1.234-0.14,2.556-0.19,3.967c-0.051,1.412-0.102,2.861-0.153,4.349c-0.051,1.488-0.089,2.932-0.114,4.33
		c-0.026,1.704-0.286,3.23-0.782,4.578s-1.202,2.492-2.117,3.433c-0.916,0.941-2.041,1.653-3.376,2.137
		c-1.335,0.482-2.868,0.725-4.597,0.725c-3.815,0-6.587-0.864-8.316-2.594s-2.594-4.464-2.594-8.202
		c0-1.195,0.032-2.257,0.095-3.186c0.063-0.928,0.096-1.875,0.096-2.842c0-2.136-0.026-4.03-0.077-5.684
		c-0.051-1.653-0.102-3.052-0.152-4.196c0.305,0.051,0.635,0.095,0.992,0.133c0.356,0.038,0.687,0.058,0.992,0.058
		c0.28,0,0.553-0.02,0.82-0.058s0.54-0.082,0.82-0.133c-0.051,0.56-0.102,1.291-0.153,2.193c-0.051,0.903-0.102,1.926-0.152,3.071
		c-0.051,1.145-0.089,2.378-0.115,3.701s-0.038,2.695-0.038,4.12c0,0.864,0.013,1.761,0.038,2.688
		c0.025,0.929,0.115,1.831,0.267,2.709c0.153,0.877,0.401,1.717,0.744,2.518s0.833,1.501,1.469,2.099
		c0.635,0.598,1.436,1.067,2.403,1.411c0.966,0.343,2.162,0.515,3.586,0.515c1.398,0,2.575-0.203,3.529-0.61
		c0.954-0.406,1.736-0.94,2.346-1.602s1.087-1.425,1.43-2.289s0.591-1.768,0.744-2.709c0.152-0.94,0.241-1.882,0.267-2.822
		c0.025-0.94,0.038-1.806,0.038-2.595C121.773,17.796,121.76,15.012,121.735,13.053z"/>
</g>
<g>
	<path fill="#FFFFFF" d="M146.164,21.165c-0.024-0.622-0.051-1.243-0.08-1.865c0.252,0.02,0.51,0.037,0.772,0.051
		c0.262,0.014,0.52,0.021,0.772,0.021s0.51-0.012,0.772-0.036s0.519-0.037,0.772-0.037c0.417,0,0.811,0.032,1.18,0.095
		c0.369,0.063,0.694,0.175,0.976,0.335s0.505,0.376,0.67,0.648s0.248,0.612,0.248,1.02c0,0.719-0.226,1.282-0.678,1.69
		c-0.452,0.408-1.042,0.694-1.77,0.859v0.029c0.864,0.039,1.546,0.248,2.046,0.626c0.5,0.379,0.75,0.986,0.75,1.822
		c0,0.544-0.112,1-0.335,1.369c-0.223,0.369-0.515,0.668-0.874,0.896c-0.359,0.229-0.755,0.389-1.187,0.48
		c-0.432,0.093-0.862,0.139-1.289,0.139c-0.233,0-0.469-0.005-0.707-0.015c-0.238-0.01-0.474-0.015-0.707-0.015s-0.469,0-0.707,0
		c-0.238,0-0.474,0.01-0.707,0.029c0.029-0.621,0.056-1.24,0.08-1.857c0.024-0.616,0.037-1.245,0.037-1.887v-2.505
		C146.2,22.417,146.188,21.787,146.164,21.165z M149.193,23.67c0.335-0.068,0.634-0.182,0.896-0.342s0.474-0.374,0.634-0.641
		c0.16-0.267,0.24-0.604,0.24-1.012c0-0.398-0.073-0.716-0.218-0.954c-0.146-0.238-0.331-0.422-0.554-0.554
		c-0.224-0.131-0.476-0.218-0.757-0.262c-0.282-0.043-0.563-0.065-0.845-0.065c-0.252,0-0.466,0.007-0.641,0.022
		s-0.331,0.032-0.466,0.051c-0.02,0.466-0.039,0.928-0.058,1.384c-0.02,0.457-0.029,0.918-0.029,1.384v1.093h0.787
		C148.521,23.772,148.858,23.739,149.193,23.67z M147.424,27.269c0.019,0.485,0.039,0.976,0.058,1.471
		c0.185,0.02,0.403,0.037,0.656,0.052c0.252,0.014,0.51,0.021,0.772,0.021c0.311,0,0.609-0.054,0.896-0.16
		c0.287-0.106,0.537-0.265,0.75-0.474c0.213-0.209,0.383-0.466,0.51-0.772c0.126-0.306,0.189-0.652,0.189-1.041
		c0-0.418-0.075-0.76-0.226-1.027c-0.15-0.267-0.367-0.476-0.648-0.626c-0.282-0.15-0.619-0.255-1.013-0.313
		c-0.393-0.059-0.833-0.087-1.318-0.087h-0.656v1.486C147.395,26.292,147.404,26.784,147.424,27.269z"/>
	<path fill="#FFFFFF" d="M157.118,21.187c-0.024-0.617-0.051-1.246-0.08-1.887c0.282,0.02,0.558,0.037,0.831,0.051
		c0.271,0.014,0.548,0.021,0.83,0.021s0.558-0.012,0.831-0.036c0.271-0.024,0.548-0.037,0.83-0.037c0.408,0,0.796,0.039,1.166,0.117
		c0.369,0.078,0.692,0.207,0.969,0.386c0.276,0.18,0.495,0.416,0.655,0.707c0.16,0.292,0.24,0.656,0.24,1.093
		c0,0.466-0.104,0.867-0.313,1.202c-0.209,0.335-0.464,0.612-0.765,0.831c-0.301,0.218-0.624,0.388-0.969,0.51
		s-0.658,0.202-0.939,0.24c0.116,0.146,0.276,0.35,0.48,0.612c0.204,0.262,0.432,0.551,0.685,0.866
		c0.252,0.316,0.515,0.646,0.787,0.991s0.534,0.675,0.787,0.99s0.49,0.604,0.714,0.866c0.223,0.263,0.403,0.462,0.539,0.598
		c-0.146-0.02-0.292-0.029-0.437-0.029s-0.292,0-0.437,0c-0.136,0-0.277,0-0.422,0c-0.146,0-0.287,0.01-0.422,0.029
		c-0.146-0.204-0.367-0.51-0.663-0.918c-0.296-0.407-0.624-0.845-0.983-1.311c-0.359-0.467-0.726-0.93-1.1-1.392
		c-0.374-0.461-0.716-0.852-1.027-1.173h-0.554v1.063c0,0.642,0.012,1.272,0.037,1.895c0.024,0.621,0.051,1.233,0.08,1.835
		c-0.224-0.02-0.461-0.029-0.714-0.029c-0.253,0-0.491,0.01-0.714,0.029c0.029-0.602,0.056-1.214,0.08-1.835
		c0.024-0.622,0.037-1.253,0.037-1.895v-2.505C157.154,22.432,157.142,21.804,157.118,21.187z M158.793,23.962
		c0.16,0.01,0.337,0.015,0.532,0.015c0.301,0,0.614-0.034,0.939-0.102s0.624-0.187,0.896-0.357c0.271-0.17,0.498-0.398,0.677-0.685
		s0.27-0.648,0.27-1.085c0-0.379-0.07-0.692-0.211-0.939c-0.141-0.248-0.323-0.444-0.546-0.59c-0.224-0.146-0.466-0.245-0.729-0.299
		c-0.262-0.053-0.52-0.08-0.772-0.08c-0.34,0-0.622,0.007-0.845,0.022c-0.224,0.015-0.413,0.032-0.568,0.051
		c-0.02,0.534-0.039,1.063-0.058,1.588c-0.02,0.524-0.029,1.049-0.029,1.573v0.83C158.484,23.933,158.633,23.952,158.793,23.962z"/>
	<path fill="#FFFFFF" d="M168.072,21.187c-0.024-0.617-0.051-1.246-0.08-1.887c0.126,0.02,0.248,0.037,0.364,0.051
		c0.117,0.014,0.233,0.021,0.35,0.021s0.233-0.007,0.35-0.021c0.117-0.015,0.238-0.032,0.364-0.051
		c-0.029,0.641-0.056,1.27-0.08,1.887c-0.024,0.617-0.037,1.245-0.037,1.886v2.505c0,0.642,0.012,1.272,0.037,1.895
		c0.024,0.621,0.051,1.233,0.08,1.835c-0.224-0.02-0.461-0.029-0.714-0.029c-0.253,0-0.491,0.01-0.714,0.029
		c0.029-0.602,0.056-1.214,0.08-1.835c0.024-0.622,0.037-1.253,0.037-1.895v-2.505C168.109,22.432,168.096,21.804,168.072,21.187z"
		/>
	<path fill="#FFFFFF" d="M182.013,20.553c-0.218-0.175-0.461-0.328-0.728-0.459c-0.267-0.131-0.563-0.238-0.889-0.32
		c-0.326-0.083-0.673-0.124-1.042-0.124c-0.603,0-1.163,0.092-1.683,0.277s-0.971,0.469-1.354,0.852
		c-0.384,0.384-0.685,0.869-0.903,1.457c-0.219,0.587-0.328,1.284-0.328,2.09c0,0.709,0.097,1.35,0.291,1.923
		c0.194,0.572,0.479,1.056,0.853,1.449c0.374,0.394,0.83,0.696,1.369,0.91s1.148,0.32,1.828,0.32c0.204,0,0.417-0.01,0.641-0.029
		c0.223-0.019,0.439-0.048,0.648-0.087s0.403-0.088,0.583-0.146c0.179-0.059,0.333-0.126,0.458-0.204
		c0.01-0.291,0.017-0.583,0.022-0.874s0.007-0.588,0.007-0.889c0-0.34-0.007-0.68-0.022-1.02s-0.032-0.665-0.051-0.977
		c0.243,0.049,0.476,0.073,0.699,0.073c0.106,0,0.213-0.004,0.32-0.014s0.209-0.029,0.306-0.059
		c-0.02,0.224-0.034,0.576-0.044,1.057s-0.015,1.114-0.015,1.9c0,0.195,0.002,0.392,0.007,0.591s0.007,0.396,0.007,0.59
		c-0.204,0.077-0.459,0.158-0.765,0.24c-0.306,0.082-0.631,0.15-0.976,0.204c-0.345,0.053-0.689,0.102-1.034,0.146
		s-0.658,0.065-0.939,0.065c-0.865,0-1.644-0.104-2.338-0.313c-0.694-0.208-1.284-0.531-1.77-0.969
		c-0.486-0.437-0.859-0.98-1.122-1.631s-0.394-1.403-0.394-2.258c0-0.826,0.136-1.561,0.408-2.207s0.656-1.192,1.151-1.639
		c0.496-0.447,1.095-0.787,1.799-1.02c0.704-0.233,1.483-0.35,2.338-0.35c0.495,0,0.935,0.027,1.318,0.08
		c0.383,0.054,0.723,0.124,1.02,0.211s0.556,0.18,0.779,0.277c0.223,0.097,0.422,0.189,0.597,0.277
		c-0.078,0.136-0.148,0.311-0.211,0.524c-0.063,0.213-0.104,0.413-0.124,0.597h-0.175C182.414,20.903,182.231,20.728,182.013,20.553
		z"/>
	<path fill="#FFFFFF" d="M194.847,21.187c-0.024-0.617-0.051-1.246-0.08-1.887c0.126,0.02,0.248,0.037,0.364,0.051
		c0.116,0.014,0.233,0.021,0.35,0.021c0.116,0,0.233-0.007,0.35-0.021c0.116-0.015,0.238-0.032,0.364-0.051
		c-0.029,0.641-0.056,1.27-0.08,1.887s-0.036,1.245-0.036,1.886v2.505c0,0.642,0.012,1.272,0.036,1.895
		c0.024,0.621,0.051,1.233,0.08,1.835c-0.223-0.02-0.461-0.029-0.713-0.029c-0.253,0-0.491,0.01-0.714,0.029
		c0.029-0.602,0.056-1.214,0.08-1.835c0.024-0.622,0.036-1.253,0.036-1.895v-1.311c-0.524-0.009-1.032-0.017-1.522-0.021
		c-0.491-0.005-0.998-0.007-1.522-0.007s-1.032,0.002-1.522,0.007c-0.491,0.005-0.998,0.012-1.522,0.021v1.311
		c0,0.642,0.012,1.272,0.037,1.895c0.024,0.621,0.051,1.233,0.08,1.835c-0.224-0.02-0.461-0.029-0.714-0.029
		c-0.253,0-0.491,0.01-0.714,0.029c0.029-0.602,0.056-1.214,0.08-1.835c0.024-0.622,0.037-1.253,0.037-1.895v-2.505
		c0-0.641-0.013-1.27-0.037-1.886c-0.024-0.617-0.051-1.246-0.08-1.887c0.126,0.02,0.248,0.037,0.364,0.051
		c0.117,0.014,0.233,0.021,0.35,0.021s0.233-0.007,0.35-0.021c0.117-0.015,0.238-0.032,0.364-0.051
		c-0.029,0.641-0.056,1.27-0.08,1.887c-0.024,0.617-0.037,1.245-0.037,1.886v0.51c0.524,0.01,1.032,0.02,1.522,0.029
		c0.49,0.01,0.998,0.015,1.522,0.015s1.032-0.005,1.522-0.015c0.49-0.01,0.998-0.02,1.522-0.029v-0.51
		C194.883,22.432,194.871,21.804,194.847,21.187z"/>
	<path fill="#FFFFFF" d="M209.028,29.308c-0.136-0.02-0.265-0.029-0.386-0.029s-0.25,0-0.386,0c-0.136,0-0.265,0-0.386,0
		c-0.122,0-0.25,0.01-0.386,0.029c-0.068-0.224-0.16-0.493-0.276-0.809c-0.117-0.315-0.246-0.646-0.386-0.99
		c-0.141-0.345-0.284-0.694-0.43-1.049s-0.282-0.692-0.408-1.013c-0.311-0.01-0.626-0.017-0.947-0.021
		c-0.32-0.005-0.641-0.008-0.961-0.008c-0.301,0-0.597,0.003-0.888,0.008c-0.292,0.005-0.588,0.012-0.889,0.021
		c-0.311,0.758-0.593,1.479-0.845,2.163s-0.442,1.251-0.568,1.697c-0.166-0.02-0.345-0.029-0.539-0.029s-0.374,0.01-0.539,0.029
		c0.787-1.699,1.554-3.389,2.302-5.069c0.748-1.68,1.5-3.389,2.258-5.128h0.277c0.233,0.563,0.485,1.173,0.757,1.828
		c0.272,0.656,0.549,1.318,0.831,1.989c0.281,0.67,0.563,1.335,0.845,1.996c0.282,0.661,0.546,1.274,0.794,1.843
		s0.471,1.076,0.67,1.522S208.901,29.075,209.028,29.308z M202.575,24.777c0.252,0,0.514,0.005,0.787,0.015
		c0.271,0.01,0.534,0.015,0.787,0.015c0.271,0,0.543-0.003,0.815-0.008s0.544-0.012,0.816-0.022l-1.617-3.7L202.575,24.777z"/>
	<path fill="#FFFFFF" d="M215.721,23.131c0.685,1.302,1.4,2.637,2.148,4.006c0.098-0.184,0.238-0.448,0.423-0.793
		s0.398-0.741,0.641-1.188c0.243-0.447,0.503-0.93,0.779-1.45c0.277-0.52,0.559-1.046,0.845-1.581
		c0.287-0.534,0.571-1.059,0.853-1.573s0.544-0.996,0.787-1.442h0.189c0.106,0.933,0.206,1.833,0.298,2.702
		c0.093,0.87,0.188,1.724,0.284,2.564c0.097,0.84,0.194,1.67,0.292,2.492c0.097,0.82,0.203,1.634,0.32,2.439
		c-0.117-0.02-0.231-0.029-0.343-0.029s-0.226,0-0.342,0c-0.117,0-0.231,0-0.343,0s-0.226,0.01-0.342,0.029
		c-0.107-1.291-0.214-2.544-0.321-3.758c-0.106-1.214-0.237-2.453-0.393-3.715h-0.029c-0.67,1.224-1.328,2.44-1.974,3.649
		c-0.646,1.21-1.261,2.475-1.843,3.795h-0.132c-0.582-1.224-1.191-2.449-1.828-3.678c-0.636-1.229-1.274-2.484-1.915-3.766h-0.029
		c-0.068,0.603-0.144,1.255-0.226,1.959c-0.083,0.704-0.158,1.398-0.226,2.083c-0.068,0.685-0.127,1.331-0.175,1.938
		c-0.049,0.607-0.073,1.104-0.073,1.493c-0.155-0.02-0.325-0.029-0.51-0.029s-0.354,0.01-0.51,0.029
		c0.126-0.786,0.257-1.617,0.394-2.491c0.136-0.874,0.267-1.753,0.393-2.637c0.126-0.883,0.243-1.755,0.35-2.615
		c0.107-0.859,0.199-1.677,0.277-2.455h0.247C214.358,20.49,215.036,21.83,215.721,23.131z"/>
	<path fill="#FFFFFF" d="M234.653,24.494c-0.189-0.315-0.398-0.665-0.626-1.049c-0.229-0.384-0.469-0.787-0.722-1.209
		c-0.252-0.423-0.493-0.826-0.721-1.209c-0.229-0.383-0.435-0.728-0.619-1.034c-0.185-0.306-0.325-0.536-0.423-0.692
		c0.137,0.02,0.27,0.037,0.401,0.051c0.131,0.014,0.264,0.021,0.4,0.021c0.136,0,0.27-0.007,0.4-0.021
		c0.131-0.015,0.265-0.032,0.4-0.051c0.438,0.845,0.882,1.675,1.333,2.491c0.452,0.815,0.93,1.666,1.435,2.549
		c0.224-0.35,0.457-0.733,0.699-1.15c0.243-0.417,0.486-0.845,0.729-1.282c0.243-0.437,0.476-0.876,0.699-1.318
		c0.224-0.441,0.433-0.871,0.627-1.289c0.242,0.049,0.432,0.073,0.567,0.073c0.137,0,0.325-0.024,0.568-0.073
		c-0.466,0.709-0.884,1.35-1.253,1.923c-0.369,0.573-0.694,1.093-0.976,1.559c-0.282,0.466-0.529,0.886-0.743,1.26
		s-0.398,0.711-0.554,1.012c0,0.359,0.003,0.743,0.008,1.151c0.005,0.407,0.012,0.809,0.021,1.201
		c0.01,0.394,0.022,0.758,0.036,1.093c0.015,0.335,0.032,0.604,0.052,0.809c-0.224-0.02-0.462-0.029-0.714-0.029
		c-0.253,0-0.491,0.01-0.714,0.029c0.059-0.505,0.092-1.116,0.102-1.835s0.015-1.472,0.015-2.259
		C234.986,25.05,234.843,24.809,234.653,24.494z"/>
	<path fill="#FFFFFF" d="M242.098,22.119c0.267-0.646,0.641-1.192,1.122-1.639c0.48-0.447,1.056-0.787,1.726-1.02
		c0.67-0.233,1.403-0.35,2.2-0.35c0.806,0,1.544,0.117,2.214,0.35c0.67,0.233,1.245,0.573,1.727,1.02
		c0.48,0.447,0.854,0.993,1.121,1.639c0.268,0.646,0.4,1.381,0.4,2.207s-0.133,1.561-0.4,2.207c-0.267,0.646-0.641,1.192-1.121,1.64
		c-0.481,0.446-1.057,0.779-1.727,0.997c-0.67,0.219-1.408,0.328-2.214,0.328c-0.797,0-1.53-0.109-2.2-0.328
		c-0.67-0.218-1.245-0.551-1.726-0.997c-0.481-0.447-0.855-0.993-1.122-1.64c-0.268-0.646-0.4-1.381-0.4-2.207
		S241.83,22.765,242.098,22.119z M250.874,22.236c-0.204-0.588-0.487-1.073-0.852-1.457c-0.364-0.383-0.792-0.667-1.282-0.852
		s-1.022-0.277-1.595-0.277c-0.563,0-1.091,0.092-1.581,0.277s-0.918,0.469-1.282,0.852c-0.363,0.384-0.647,0.869-0.852,1.457
		c-0.204,0.587-0.306,1.284-0.306,2.09s0.102,1.503,0.306,2.09c0.204,0.588,0.488,1.073,0.852,1.457
		c0.364,0.384,0.792,0.668,1.282,0.852c0.49,0.185,1.018,0.277,1.581,0.277c0.572,0,1.104-0.093,1.595-0.277
		c0.49-0.184,0.918-0.468,1.282-0.852s0.647-0.869,0.852-1.457c0.204-0.587,0.307-1.284,0.307-2.09S251.078,22.823,250.874,22.236z"
		/>
	<path fill="#FFFFFF" d="M263.984,20.844c-0.011-0.748-0.034-1.262-0.073-1.544c0.106,0.02,0.209,0.037,0.306,0.051
		c0.097,0.014,0.194,0.021,0.292,0.021c0.126,0,0.271-0.024,0.437-0.073c-0.029,0.34-0.059,0.746-0.087,1.216
		c-0.029,0.471-0.054,0.976-0.073,1.515s-0.039,1.092-0.059,1.661c-0.02,0.568-0.034,1.12-0.043,1.654
		c-0.011,0.65-0.109,1.233-0.299,1.748s-0.459,0.951-0.809,1.311s-0.779,0.632-1.289,0.816c-0.51,0.184-1.096,0.276-1.755,0.276
		c-1.457,0-2.516-0.33-3.176-0.99c-0.661-0.66-0.991-1.705-0.991-3.132c0-0.457,0.013-0.862,0.037-1.217
		c0.023-0.354,0.036-0.716,0.036-1.085c0-0.816-0.01-1.539-0.029-2.17s-0.039-1.166-0.059-1.603c0.117,0.02,0.243,0.037,0.379,0.051
		c0.136,0.014,0.263,0.021,0.379,0.021c0.106,0,0.211-0.007,0.313-0.021c0.102-0.015,0.206-0.032,0.313-0.051
		c-0.021,0.214-0.039,0.493-0.059,0.838s-0.039,0.735-0.059,1.172s-0.034,0.908-0.044,1.413s-0.014,1.029-0.014,1.573
		c0,0.33,0.004,0.672,0.014,1.027s0.044,0.699,0.103,1.034c0.059,0.336,0.152,0.656,0.284,0.962
		c0.131,0.306,0.317,0.573,0.561,0.801c0.242,0.229,0.549,0.408,0.918,0.539c0.369,0.132,0.825,0.197,1.368,0.197
		c0.534,0,0.984-0.078,1.348-0.233c0.364-0.155,0.663-0.359,0.896-0.612c0.233-0.252,0.415-0.543,0.546-0.874
		c0.131-0.329,0.226-0.675,0.284-1.034c0.059-0.358,0.092-0.718,0.103-1.077c0.009-0.36,0.014-0.69,0.014-0.991
		C263.998,22.656,263.993,21.592,263.984,20.844z"/>
	<path fill="#FFFFFF" d="M274.137,25.528c-1.263-1.355-2.524-2.702-3.787-4.042c-0.01,0.272-0.02,0.636-0.029,1.093
		s-0.015,1.078-0.015,1.864c0,0.204,0.003,0.457,0.008,0.758c0.005,0.301,0.009,0.616,0.015,0.946
		c0.005,0.33,0.012,0.665,0.021,1.005c0.01,0.341,0.02,0.656,0.029,0.947s0.02,0.546,0.029,0.765
		c0.009,0.219,0.019,0.367,0.029,0.444c-0.156-0.02-0.326-0.029-0.511-0.029c-0.194,0-0.374,0.01-0.538,0.029
		c0.019-0.097,0.041-0.276,0.065-0.539c0.023-0.262,0.046-0.575,0.065-0.939s0.041-0.76,0.065-1.188
		c0.024-0.427,0.044-0.854,0.059-1.281c0.014-0.428,0.026-0.846,0.036-1.253s0.015-0.772,0.015-1.092
		c0-0.933-0.003-1.734-0.008-2.404s-0.017-1.17-0.036-1.5h0.233c0.592,0.641,1.226,1.328,1.9,2.062s1.346,1.457,2.011,2.17
		s1.296,1.389,1.894,2.025c0.598,0.637,1.119,1.178,1.566,1.624v-1.98c0-1.021-0.008-2.013-0.022-2.979s-0.046-1.876-0.095-2.731
		c0.194,0.049,0.359,0.073,0.495,0.073c0.117,0,0.272-0.024,0.467-0.073c-0.02,0.214-0.042,0.534-0.065,0.961
		c-0.024,0.428-0.049,0.884-0.073,1.369c-0.024,0.486-0.046,0.961-0.065,1.428s-0.029,0.84-0.029,1.122c0,0.243,0,0.534,0,0.874
		c0,0.331,0.002,0.676,0.007,1.034c0.005,0.36,0.01,0.722,0.015,1.086s0.01,0.704,0.015,1.02s0.008,0.59,0.008,0.823
		c0,0.214,0,0.373,0,0.48h-0.204C276.589,28.207,275.399,26.882,274.137,25.528z"/>
	<path fill="#FFFFFF" d="M290.401,20.553c-0.219-0.175-0.462-0.328-0.729-0.459c-0.268-0.131-0.563-0.238-0.889-0.32
		s-0.673-0.124-1.042-0.124c-0.602,0-1.163,0.092-1.682,0.277c-0.521,0.185-0.972,0.469-1.355,0.852
		c-0.384,0.384-0.685,0.869-0.903,1.457c-0.218,0.587-0.327,1.284-0.327,2.09c0,0.709,0.097,1.35,0.291,1.923
		c0.194,0.572,0.479,1.056,0.853,1.449s0.83,0.696,1.369,0.91s1.148,0.32,1.828,0.32c0.204,0,0.417-0.01,0.641-0.029
		c0.224-0.019,0.439-0.048,0.648-0.087s0.403-0.088,0.583-0.146c0.18-0.059,0.332-0.126,0.459-0.204
		c0.009-0.291,0.017-0.583,0.021-0.874s0.008-0.588,0.008-0.889c0-0.34-0.008-0.68-0.022-1.02s-0.031-0.665-0.051-0.977
		c0.242,0.049,0.476,0.073,0.699,0.073c0.106,0,0.214-0.004,0.32-0.014s0.209-0.029,0.306-0.059
		c-0.02,0.224-0.034,0.576-0.043,1.057c-0.01,0.48-0.015,1.114-0.015,1.9c0,0.195,0.002,0.392,0.007,0.591s0.008,0.396,0.008,0.59
		c-0.204,0.077-0.459,0.158-0.766,0.24c-0.306,0.082-0.631,0.15-0.976,0.204c-0.345,0.053-0.689,0.102-1.034,0.146
		s-0.658,0.065-0.939,0.065c-0.864,0-1.644-0.104-2.338-0.313c-0.694-0.208-1.285-0.531-1.771-0.969
		c-0.485-0.437-0.859-0.98-1.121-1.631c-0.263-0.65-0.394-1.403-0.394-2.258c0-0.826,0.136-1.561,0.408-2.207
		c0.271-0.646,0.655-1.192,1.15-1.639s1.095-0.787,1.799-1.02c0.704-0.233,1.483-0.35,2.338-0.35c0.496,0,0.935,0.027,1.318,0.08
		c0.384,0.054,0.724,0.124,1.021,0.211c0.296,0.087,0.556,0.18,0.779,0.277c0.223,0.097,0.422,0.189,0.597,0.277
		c-0.078,0.136-0.148,0.311-0.211,0.524c-0.063,0.213-0.104,0.413-0.124,0.597h-0.175C290.802,20.903,290.619,20.728,290.401,20.553
		z"/>
	<path fill="#FFFFFF" d="M310.743,20.844c-0.011-0.748-0.034-1.262-0.073-1.544c0.106,0.02,0.209,0.037,0.306,0.051
		c0.097,0.014,0.194,0.021,0.292,0.021c0.126,0,0.271-0.024,0.437-0.073c-0.029,0.34-0.059,0.746-0.087,1.216
		c-0.029,0.471-0.054,0.976-0.073,1.515s-0.039,1.092-0.059,1.661c-0.02,0.568-0.034,1.12-0.043,1.654
		c-0.011,0.65-0.109,1.233-0.299,1.748s-0.459,0.951-0.809,1.311s-0.779,0.632-1.289,0.816c-0.51,0.184-1.096,0.276-1.756,0.276
		c-1.456,0-2.515-0.33-3.176-0.99c-0.66-0.66-0.99-1.705-0.99-3.132c0-0.457,0.012-0.862,0.036-1.217s0.037-0.716,0.037-1.085
		c0-0.816-0.01-1.539-0.029-2.17s-0.039-1.166-0.059-1.603c0.117,0.02,0.243,0.037,0.379,0.051c0.136,0.014,0.263,0.021,0.379,0.021
		c0.106,0,0.211-0.007,0.313-0.021c0.102-0.015,0.206-0.032,0.312-0.051c-0.02,0.214-0.039,0.493-0.058,0.838
		c-0.02,0.345-0.039,0.735-0.059,1.172s-0.034,0.908-0.044,1.413s-0.015,1.029-0.015,1.573c0,0.33,0.005,0.672,0.015,1.027
		s0.044,0.699,0.103,1.034c0.058,0.336,0.152,0.656,0.283,0.962c0.132,0.306,0.318,0.573,0.562,0.801
		c0.242,0.229,0.548,0.408,0.918,0.539c0.368,0.132,0.825,0.197,1.369,0.197c0.533,0,0.983-0.078,1.347-0.233
		c0.364-0.155,0.663-0.359,0.896-0.612c0.233-0.252,0.415-0.543,0.546-0.874c0.131-0.329,0.226-0.675,0.284-1.034
		c0.059-0.358,0.092-0.718,0.103-1.077c0.009-0.36,0.014-0.69,0.014-0.991C310.757,22.656,310.752,21.592,310.743,20.844z"/>
	<path fill="#FFFFFF" d="M321.187,25.528c-1.263-1.355-2.524-2.702-3.787-4.042c-0.01,0.272-0.02,0.636-0.029,1.093
		s-0.015,1.078-0.015,1.864c0,0.204,0.003,0.457,0.008,0.758c0.005,0.301,0.009,0.616,0.015,0.946
		c0.005,0.33,0.012,0.665,0.021,1.005c0.01,0.341,0.02,0.656,0.029,0.947s0.02,0.546,0.029,0.765
		c0.009,0.219,0.019,0.367,0.029,0.444c-0.156-0.02-0.326-0.029-0.511-0.029c-0.194,0-0.374,0.01-0.538,0.029
		c0.019-0.097,0.041-0.276,0.065-0.539c0.023-0.262,0.046-0.575,0.065-0.939s0.041-0.76,0.065-1.188
		c0.024-0.427,0.044-0.854,0.059-1.281c0.014-0.428,0.026-0.846,0.036-1.253s0.015-0.772,0.015-1.092
		c0-0.933-0.003-1.734-0.008-2.404s-0.017-1.17-0.036-1.5h0.233c0.592,0.641,1.226,1.328,1.9,2.062s1.346,1.457,2.011,2.17
		s1.296,1.389,1.894,2.025c0.598,0.637,1.119,1.178,1.566,1.624v-1.98c0-1.021-0.008-2.013-0.022-2.979s-0.046-1.876-0.095-2.731
		c0.194,0.049,0.359,0.073,0.495,0.073c0.117,0,0.272-0.024,0.467-0.073c-0.02,0.214-0.042,0.534-0.065,0.961
		c-0.024,0.428-0.049,0.884-0.073,1.369c-0.024,0.486-0.046,0.961-0.065,1.428s-0.029,0.84-0.029,1.122c0,0.243,0,0.534,0,0.874
		c0,0.331,0.002,0.676,0.007,1.034c0.005,0.36,0.01,0.722,0.015,1.086s0.01,0.704,0.015,1.02s0.008,0.59,0.008,0.823
		c0,0.214,0,0.373,0,0.48h-0.204C323.639,28.207,322.449,26.882,321.187,25.528z"/>
	<path fill="#FFFFFF" d="M329.905,21.187c-0.024-0.617-0.052-1.246-0.08-1.887c0.126,0.02,0.247,0.037,0.363,0.051
		c0.117,0.014,0.233,0.021,0.35,0.021c0.117,0,0.233-0.007,0.35-0.021c0.117-0.015,0.238-0.032,0.364-0.051
		c-0.028,0.641-0.056,1.27-0.08,1.887s-0.036,1.245-0.036,1.886v2.505c0,0.642,0.012,1.272,0.036,1.895
		c0.024,0.621,0.052,1.233,0.08,1.835c-0.224-0.02-0.461-0.029-0.714-0.029c-0.252,0-0.49,0.01-0.713,0.029
		c0.028-0.602,0.056-1.214,0.08-1.835c0.023-0.622,0.036-1.253,0.036-1.895v-2.505C329.941,22.432,329.929,21.804,329.905,21.187z"
		/>
	<path fill="#FFFFFF" d="M338.114,27.24c-0.32-0.806-0.663-1.655-1.027-2.55c-0.364-0.893-0.737-1.806-1.121-2.738
		c-0.384-0.933-0.75-1.816-1.1-2.651c0.136,0.02,0.267,0.037,0.393,0.051c0.126,0.014,0.248,0.021,0.364,0.021
		c0.117,0,0.238-0.007,0.364-0.021c0.126-0.015,0.258-0.032,0.394-0.051c0.214,0.641,0.449,1.313,0.706,2.018
		c0.258,0.704,0.529,1.42,0.816,2.148c0.286,0.729,0.58,1.467,0.881,2.215s0.607,1.49,0.918,2.229
		c0.175-0.398,0.364-0.843,0.568-1.333s0.41-1,0.619-1.529c0.208-0.529,0.415-1.068,0.619-1.617c0.203-0.549,0.4-1.076,0.59-1.581
		s0.361-0.976,0.517-1.413s0.286-0.816,0.394-1.136c0.214,0.049,0.394,0.073,0.539,0.073s0.325-0.024,0.539-0.073
		c-0.758,1.69-1.486,3.365-2.186,5.026s-1.369,3.322-2.01,4.982c-0.155-0.02-0.315-0.029-0.48-0.029
		c-0.194,0-0.355,0.01-0.481,0.029C338.706,28.735,338.435,28.045,338.114,27.24z"/>
	<path fill="#FFFFFF" d="M347.779,21.165c-0.024-0.622-0.052-1.243-0.08-1.865c0.437,0.02,0.871,0.037,1.304,0.051
		c0.432,0.014,0.866,0.021,1.304,0.021c0.437,0,0.868-0.007,1.296-0.021c0.428-0.015,0.859-0.032,1.297-0.051
		c-0.029,0.146-0.044,0.292-0.044,0.437s0.015,0.292,0.044,0.437c-0.312-0.019-0.595-0.039-0.853-0.058
		c-0.257-0.02-0.529-0.039-0.815-0.059c-0.287-0.019-0.6-0.036-0.939-0.051c-0.341-0.015-0.748-0.022-1.224-0.022
		c-0.01,0.311-0.022,0.607-0.037,0.889c-0.015,0.282-0.021,0.603-0.021,0.961c0,0.379,0.002,0.748,0.007,1.107
		c0.005,0.36,0.008,0.632,0.008,0.816c0.427,0,0.811-0.005,1.15-0.015c0.34-0.009,0.65-0.021,0.933-0.036
		c0.281-0.015,0.541-0.029,0.779-0.044s0.464-0.031,0.678-0.051c-0.029,0.146-0.044,0.296-0.044,0.452
		c0,0.146,0.015,0.291,0.044,0.437c-0.253-0.029-0.547-0.053-0.882-0.073c-0.335-0.019-0.67-0.031-1.005-0.036
		s-0.65-0.01-0.947-0.015c-0.296-0.005-0.531-0.007-0.706-0.007c0,0.087-0.003,0.182-0.008,0.284s-0.007,0.231-0.007,0.386v0.568
		v0.874c0,0.554,0.002,1.011,0.007,1.369c0.005,0.359,0.013,0.632,0.022,0.816c0.32,0,0.66,0,1.02,0c0.369,0,0.73-0.008,1.085-0.022
		s0.689-0.033,1.006-0.058c0.315-0.024,0.59-0.061,0.822-0.109c-0.02,0.068-0.031,0.144-0.036,0.226
		c-0.005,0.083-0.007,0.158-0.007,0.226c0,0.155,0.015,0.282,0.043,0.379c-0.437-0.02-0.871-0.029-1.304-0.029
		c-0.432,0-0.871,0-1.318,0c-0.446,0-0.889,0-1.325,0c-0.438,0-0.879,0.01-1.325,0.029c0.028-0.621,0.056-1.24,0.08-1.857
		c0.023-0.616,0.036-1.245,0.036-1.887v-2.505C347.815,22.417,347.803,21.787,347.779,21.165z"/>
	<path fill="#FFFFFF" d="M357.117,21.187c-0.024-0.617-0.052-1.246-0.08-1.887c0.281,0.02,0.558,0.037,0.83,0.051
		c0.271,0.014,0.548,0.021,0.83,0.021c0.281,0,0.559-0.012,0.83-0.036c0.272-0.024,0.549-0.037,0.831-0.037
		c0.407,0,0.796,0.039,1.165,0.117s0.691,0.207,0.969,0.386c0.276,0.18,0.495,0.416,0.655,0.707c0.16,0.292,0.24,0.656,0.24,1.093
		c0,0.466-0.104,0.867-0.313,1.202c-0.208,0.335-0.464,0.612-0.765,0.831c-0.301,0.218-0.624,0.388-0.969,0.51
		s-0.657,0.202-0.939,0.24c0.117,0.146,0.277,0.35,0.481,0.612c0.203,0.262,0.432,0.551,0.685,0.866
		c0.252,0.316,0.515,0.646,0.786,0.991s0.534,0.675,0.787,0.99c0.252,0.315,0.49,0.604,0.714,0.866
		c0.223,0.263,0.402,0.462,0.538,0.598c-0.146-0.02-0.291-0.029-0.437-0.029s-0.291,0-0.438,0c-0.136,0-0.276,0-0.422,0
		s-0.287,0.01-0.423,0.029c-0.146-0.204-0.366-0.51-0.662-0.918c-0.297-0.407-0.625-0.845-0.983-1.311
		c-0.359-0.467-0.727-0.93-1.101-1.392c-0.373-0.461-0.716-0.852-1.026-1.173h-0.554v1.063c0,0.642,0.012,1.272,0.036,1.895
		c0.024,0.621,0.052,1.233,0.08,1.835c-0.224-0.02-0.461-0.029-0.714-0.029c-0.252,0-0.49,0.01-0.713,0.029
		c0.028-0.602,0.056-1.214,0.08-1.835c0.023-0.622,0.036-1.253,0.036-1.895v-2.505C357.153,22.432,357.141,21.804,357.117,21.187z
		 M358.792,23.962c0.16,0.01,0.337,0.015,0.531,0.015c0.302,0,0.614-0.034,0.94-0.102c0.325-0.068,0.623-0.187,0.896-0.357
		c0.271-0.17,0.497-0.398,0.678-0.685c0.179-0.287,0.27-0.648,0.27-1.085c0-0.379-0.071-0.692-0.212-0.939s-0.323-0.444-0.546-0.59
		c-0.224-0.146-0.466-0.245-0.729-0.299c-0.262-0.053-0.52-0.08-0.772-0.08c-0.34,0-0.621,0.007-0.845,0.022
		s-0.413,0.032-0.567,0.051c-0.021,0.534-0.039,1.063-0.059,1.588s-0.029,1.049-0.029,1.573v0.83
		C358.483,23.933,358.632,23.952,358.792,23.962z"/>
	<path fill="#FFFFFF" d="M368.1,27.946c0.132,0.181,0.292,0.343,0.481,0.488s0.41,0.265,0.662,0.357
		c0.253,0.092,0.534,0.138,0.846,0.138c0.32,0,0.608-0.056,0.866-0.167c0.257-0.111,0.476-0.263,0.655-0.452s0.318-0.412,0.415-0.67
		c0.098-0.257,0.146-0.531,0.146-0.823c0-0.446-0.114-0.801-0.343-1.063c-0.229-0.262-0.513-0.48-0.853-0.655
		s-0.706-0.335-1.1-0.481c-0.394-0.146-0.76-0.328-1.1-0.546c-0.34-0.219-0.624-0.498-0.853-0.838
		c-0.228-0.34-0.342-0.796-0.342-1.369c0-0.408,0.072-0.779,0.219-1.114c0.146-0.335,0.356-0.624,0.633-0.867
		c0.277-0.242,0.609-0.432,0.998-0.568c0.389-0.136,0.825-0.204,1.312-0.204c0.466,0,0.869,0.056,1.209,0.167
		c0.34,0.112,0.655,0.284,0.946,0.517c-0.087,0.166-0.16,0.34-0.218,0.524c-0.059,0.185-0.117,0.418-0.175,0.699h-0.175
		c-0.049-0.136-0.114-0.284-0.197-0.444c-0.082-0.161-0.194-0.309-0.335-0.444c-0.141-0.136-0.309-0.25-0.502-0.342
		c-0.194-0.092-0.428-0.139-0.699-0.139c-0.272,0-0.522,0.044-0.751,0.131c-0.228,0.087-0.427,0.211-0.597,0.371
		c-0.17,0.161-0.302,0.353-0.394,0.576c-0.093,0.224-0.139,0.466-0.139,0.728c0,0.457,0.114,0.816,0.343,1.078
		c0.228,0.262,0.512,0.483,0.853,0.663c0.339,0.18,0.706,0.34,1.1,0.48c0.393,0.141,0.76,0.313,1.1,0.517s0.624,0.466,0.853,0.787
		c0.228,0.32,0.342,0.748,0.342,1.281c0,0.447-0.08,0.87-0.24,1.268c-0.16,0.398-0.394,0.746-0.699,1.042s-0.68,0.524-1.122,0.685
		c-0.441,0.16-0.944,0.24-1.507,0.24c-0.603,0-1.091-0.08-1.465-0.24s-0.687-0.343-0.939-0.547c0.088-0.223,0.148-0.424,0.183-0.604
		c0.033-0.179,0.065-0.41,0.095-0.691h0.175C367.864,27.589,367.969,27.766,368.1,27.946z"/>
	<path fill="#FFFFFF" d="M377.409,21.187c-0.024-0.617-0.052-1.246-0.08-1.887c0.126,0.02,0.247,0.037,0.363,0.051
		c0.117,0.014,0.233,0.021,0.35,0.021c0.117,0,0.233-0.007,0.35-0.021c0.117-0.015,0.238-0.032,0.364-0.051
		c-0.028,0.641-0.056,1.27-0.08,1.887s-0.036,1.245-0.036,1.886v2.505c0,0.642,0.012,1.272,0.036,1.895
		c0.024,0.621,0.052,1.233,0.08,1.835c-0.224-0.02-0.461-0.029-0.714-0.029c-0.252,0-0.49,0.01-0.713,0.029
		c0.028-0.602,0.056-1.214,0.08-1.835c0.023-0.622,0.036-1.253,0.036-1.895v-2.505C377.445,22.432,377.433,21.804,377.409,21.187z"
		/>
	<path fill="#FFFFFF" d="M385.53,20.058c-0.253,0-0.518,0.003-0.794,0.007c-0.277,0.005-0.554,0.015-0.831,0.029
		c-0.276,0.015-0.544,0.032-0.801,0.051c-0.258,0.02-0.488,0.044-0.692,0.073c0.049-0.175,0.073-0.33,0.073-0.466
		c0-0.107-0.024-0.257-0.073-0.452c0.642,0.02,1.268,0.037,1.88,0.051c0.611,0.014,1.238,0.021,1.879,0.021s1.268-0.007,1.879-0.021
		c0.612-0.015,1.238-0.032,1.879-0.051c-0.049,0.194-0.072,0.35-0.072,0.466c0,0.126,0.023,0.277,0.072,0.452
		c-0.203-0.029-0.435-0.053-0.691-0.073c-0.258-0.019-0.524-0.036-0.802-0.051c-0.276-0.015-0.553-0.024-0.83-0.029
		c-0.276-0.004-0.541-0.007-0.794-0.007c-0.029,1-0.044,2.006-0.044,3.016v2.505c0,0.642,0.013,1.272,0.037,1.895
		c0.023,0.621,0.051,1.233,0.08,1.835c-0.224-0.02-0.462-0.029-0.714-0.029c-0.253,0-0.49,0.01-0.714,0.029
		c0.029-0.602,0.056-1.214,0.08-1.835c0.024-0.622,0.036-1.253,0.036-1.895v-2.505C385.573,22.063,385.559,21.058,385.53,20.058z"/>
	<path fill="#FFFFFF" d="M395.705,24.494c-0.189-0.315-0.398-0.665-0.627-1.049c-0.228-0.384-0.468-0.787-0.721-1.209
		c-0.253-0.423-0.493-0.826-0.721-1.209c-0.229-0.383-0.435-0.728-0.619-1.034c-0.185-0.306-0.326-0.536-0.423-0.692
		c0.136,0.02,0.27,0.037,0.4,0.051c0.132,0.014,0.265,0.021,0.401,0.021c0.136,0,0.27-0.007,0.4-0.021
		c0.131-0.015,0.265-0.032,0.4-0.051c0.438,0.845,0.881,1.675,1.333,2.491c0.451,0.815,0.93,1.666,1.435,2.549
		c0.224-0.35,0.456-0.733,0.699-1.15s0.485-0.845,0.729-1.282c0.242-0.437,0.476-0.876,0.699-1.318
		c0.224-0.441,0.432-0.871,0.626-1.289c0.243,0.049,0.433,0.073,0.568,0.073s0.325-0.024,0.568-0.073
		c-0.466,0.709-0.884,1.35-1.253,1.923c-0.369,0.573-0.694,1.093-0.976,1.559c-0.282,0.466-0.529,0.886-0.743,1.26
		s-0.398,0.711-0.554,1.012c0,0.359,0.002,0.743,0.008,1.151c0.004,0.407,0.012,0.809,0.021,1.201
		c0.01,0.394,0.021,0.758,0.036,1.093s0.031,0.604,0.051,0.809c-0.223-0.02-0.461-0.029-0.713-0.029
		c-0.253,0-0.491,0.01-0.714,0.029c0.058-0.505,0.092-1.116,0.102-1.835s0.015-1.472,0.015-2.259
		C396.037,25.05,395.895,24.809,395.705,24.494z"/>
</g>
<g>
</g>
<g>
</g>
<g>
</g>
<g>
</g>
<g>
</g>
<g>
</g>
</svg>
